<svg width="368" height="38" viewBox="0 0 368 38" fill="none" xmlns="http://www.w3.org/2000/svg">
<path d="M0 6C0 2.68629 2.68629 0 6 0H37.9999V32C37.9999 35.3137 35.3136 38 31.9999 38H6.00001C2.6863 38 0 35.3137 0 32V6Z" fill="#E5E5E5"/>
<path d="M16 32H22C23.1029 32 24 31.1296 24 30.0251V24.0251H21H18C16.8972 24.0251 16 24.9205 16 26.0251V32Z" fill="#0C0A0A"/>
<path d="M24 24.0251L30.0001 24C31.0001 24 32.0001 23.0251 32 22.0502C32 22.0502 32 18.378 32 16.0251C29.6569 16.0251 26.0001 16.0251 26.0001 16.0251C25.0001 16.0251 24 17.0251 24.0125 18.0502L24 24.0251Z" fill="#0C0A0A"/>
<path d="M15 13C15 13.9259 13.9985 15 13 15H9.02198C8.02355 15 7.00023 16 7 17V23H13.0157C14.0141 23 15 22 15 21V17C15 16 16.011 15 17.0094 15H21.0032C22.0016 15 23 14 23 13V7H17C16.0016 7 15 8 15 9V13Z" fill="#0C0A0A"/>
<path d="M13 15C13.9985 15 15 13.9259 15 13V9C15 8 16.0016 7 17 7H23C23 7 23 6 22 6H16C15 6 14 7 14 8V12C14 13 13 14 12 14H8.00001C7 14 6 15 6 16V22C6 23 7 23 7 23V17C7.00023 16 8.02355 15 9.02198 15H13Z" fill="url(#paint0_linear_95_54)"/>
<path d="M16 32V26.0251C16 24.9205 16.8972 24.0251 18 24.0251H21H24L24.0125 18.0502C24 17.0251 25.0001 16.0251 26.0001 16.0251H32C32.0001 15.5 31.5001 15 30.9875 15H24.9876C23.9876 15 22.9876 16 23 17.0251L22.9875 23L17 23.0251C16 23.0251 15 24.0251 15 25.0251V31.0251C15 32 16 32 16 32Z" fill="url(#paint1_linear_95_54)"/>
<path d="M51.2208 32.5V30.638H52.3988C52.8548 30.638 53.2601 30.5873 53.6148 30.486C53.9695 30.3593 54.2481 30.1187 54.4508 29.764C54.6788 29.384 54.7928 28.8267 54.7928 28.092V9.776C54.7928 9.016 54.6788 8.45867 54.4508 8.104C54.2481 7.74933 53.9695 7.52133 53.6148 7.42C53.2601 7.29333 52.8548 7.23 52.3988 7.23H51.2208V5.368H63.5328V7.23H62.3548C61.9241 7.23 61.5188 7.29333 61.1388 7.42C60.7841 7.52133 60.5055 7.74933 60.3028 8.104C60.1001 8.45867 59.9988 9.016 59.9988 9.776V28.092C59.9988 28.8267 60.1001 29.384 60.3028 29.764C60.5055 30.1187 60.7841 30.3593 61.1388 30.486C61.5188 30.5873 61.9241 30.638 62.3548 30.638H63.5328V32.5H51.2208ZM65.6112 32.5V30.638H65.7632C66.3459 30.638 66.8652 30.5747 67.3212 30.448C67.7772 30.3213 68.1319 30.068 68.3852 29.688C68.6639 29.308 68.8032 28.738 68.8032 27.978V16.502C68.8032 15.7673 68.6766 15.2227 68.4232 14.868C68.1699 14.5133 67.8279 14.2853 67.3972 14.184C66.9919 14.0573 66.5106 13.994 65.9532 13.994H65.8012V12.132H73.0972L73.5912 14.982H73.7812C74.2879 14.0193 74.8326 13.31 75.4152 12.854C76.0232 12.3727 76.6692 12.056 77.3532 11.904C78.0626 11.752 78.8226 11.676 79.6332 11.676C81.6092 11.676 83.1546 12.2587 84.2692 13.424C85.3839 14.5893 85.9412 16.464 85.9412 19.048V27.94C85.9412 28.7253 86.0426 29.308 86.2452 29.688C86.4732 30.068 86.7772 30.3213 87.1572 30.448C87.5626 30.5747 88.0439 30.638 88.6012 30.638H88.7532V32.5H81.0012V19.77C81.0012 18.1233 80.7352 16.8567 80.2032 15.97C79.6966 15.058 78.8099 14.602 77.5432 14.602C76.5806 14.602 75.8206 14.8807 75.2632 15.438C74.7312 15.9953 74.3386 16.73 74.0852 17.642C73.8572 18.554 73.7432 19.542 73.7432 20.606V28.13C73.7432 28.8647 73.8572 29.4093 74.0852 29.764C74.3386 30.1187 74.6806 30.3593 75.1112 30.486C75.5419 30.5873 76.0359 30.638 76.5932 30.638H76.7452V32.5H65.6112ZM98.9821 32.88C97.1834 32.88 95.8027 32.4367 94.8401 31.55C93.9027 30.6633 93.4341 29.118 93.4341 26.914V14.564H90.5461V12.778C91.2301 12.778 91.8761 12.6387 92.4841 12.36C93.0921 12.0813 93.5987 11.7393 94.0041 11.334C94.3841 10.9033 94.7261 10.3713 95.0301 9.738C95.3341 9.10467 95.5747 8.332 95.7521 7.42H98.3741V12.132H103.276V14.564H98.3741V26.724C98.3741 27.9147 98.5894 28.8013 99.0201 29.384C99.4761 29.9413 100.135 30.22 100.996 30.22C101.503 30.22 101.959 30.1947 102.364 30.144C102.795 30.068 103.213 29.9793 103.618 29.878V32.044C103.238 32.2213 102.63 32.3987 101.794 32.576C100.983 32.7787 100.046 32.88 98.9821 32.88ZM105.357 32.5V30.638H105.471C106.054 30.638 106.56 30.5747 106.991 30.448C107.447 30.3213 107.802 30.068 108.055 29.688C108.334 29.2827 108.473 28.6873 108.473 27.902V16.578C108.473 15.818 108.346 15.2607 108.093 14.906C107.84 14.526 107.498 14.2853 107.067 14.184C106.636 14.0573 106.142 13.994 105.585 13.994H105.471V12.132H112.463L113.185 15.4H113.375C113.704 14.64 114.072 13.9813 114.477 13.424C114.908 12.8667 115.452 12.4487 116.111 12.17C116.77 11.866 117.631 11.714 118.695 11.714C120.139 11.714 121.203 11.9673 121.887 12.474C122.596 12.9807 122.951 13.7153 122.951 14.678C122.951 15.6913 122.584 16.502 121.849 17.11C121.114 17.6927 120.038 17.984 118.619 17.984C118.619 17.2747 118.556 16.7047 118.429 16.274C118.328 15.818 118.138 15.476 117.859 15.248C117.58 15.02 117.2 14.906 116.719 14.906C116.035 14.906 115.478 15.1593 115.047 15.666C114.616 16.1473 114.274 16.7553 114.021 17.49C113.793 18.2247 113.628 18.9847 113.527 19.77C113.451 20.5553 113.413 21.214 113.413 21.746V28.092C113.413 28.8267 113.54 29.384 113.793 29.764C114.046 30.1187 114.388 30.3593 114.819 30.486C115.25 30.5873 115.718 30.638 116.225 30.638H117.403V32.5H105.357ZM134.842 32.88C131.929 32.88 129.624 32.006 127.926 30.258C126.254 28.51 125.418 25.8373 125.418 22.24C125.418 18.6933 126.216 16.046 127.812 14.298C129.434 12.55 131.815 11.676 134.956 11.676C137.895 11.676 140.2 12.55 141.872 14.298C143.544 16.046 144.38 18.6933 144.38 22.24C144.38 25.8373 143.57 28.51 141.948 30.258C140.352 32.006 137.984 32.88 134.842 32.88ZM134.918 30.638C136.008 30.638 136.869 30.334 137.502 29.726C138.161 29.0927 138.63 28.1427 138.908 26.876C139.187 25.6093 139.326 24.064 139.326 22.24C139.326 20.3907 139.174 18.858 138.87 17.642C138.592 16.426 138.123 15.514 137.464 14.906C136.831 14.2727 135.97 13.956 134.88 13.956C133.816 13.956 132.955 14.2727 132.296 14.906C131.638 15.514 131.169 16.426 130.89 17.642C130.612 18.858 130.472 20.3907 130.472 22.24C130.472 24.0893 130.612 25.6347 130.89 26.876C131.194 28.1173 131.663 29.0547 132.296 29.688C132.955 30.3213 133.829 30.638 134.918 30.638ZM157.287 32.88C155.513 32.88 153.943 32.538 152.575 31.854C151.207 31.17 150.13 30.068 149.345 28.548C148.559 27.0027 148.167 24.9507 148.167 22.392C148.167 19.6813 148.559 17.5533 149.345 16.008C150.155 14.4373 151.232 13.3227 152.575 12.664C153.943 12.0053 155.475 11.676 157.173 11.676C158.591 11.676 159.833 11.8407 160.897 12.17C161.986 12.4993 162.835 12.9553 163.443 13.538C164.051 14.1207 164.355 14.8173 164.355 15.628C164.355 16.1853 164.215 16.692 163.937 17.148C163.683 17.5787 163.24 17.9207 162.607 18.174C161.973 18.4273 161.112 18.554 160.023 18.554C160.023 17.6927 159.934 16.9073 159.757 16.198C159.605 15.4887 159.326 14.9187 158.921 14.488C158.541 14.0573 157.983 13.842 157.249 13.842C156.438 13.842 155.716 14.0953 155.083 14.602C154.475 15.0833 154.006 15.9447 153.677 17.186C153.347 18.4273 153.183 20.15 153.183 22.354C153.183 24.102 153.36 25.5587 153.715 26.724C154.069 27.864 154.601 28.7253 155.311 29.308C156.045 29.8907 157.008 30.182 158.199 30.182C159.035 30.182 159.795 30.0553 160.479 29.802C161.188 29.5487 161.796 29.2067 162.303 28.776C162.835 28.32 163.24 27.8133 163.519 27.256C163.772 27.4333 163.962 27.6613 164.089 27.94C164.241 28.2187 164.317 28.5353 164.317 28.89C164.317 29.5233 164.063 30.144 163.557 30.752C163.05 31.36 162.277 31.8667 161.239 32.272C160.225 32.6773 158.908 32.88 157.287 32.88ZM174.982 32.88C173.183 32.88 171.803 32.4367 170.84 31.55C169.903 30.6633 169.434 29.118 169.434 26.914V14.564H166.546V12.778C167.23 12.778 167.876 12.6387 168.484 12.36C169.092 12.0813 169.599 11.7393 170.004 11.334C170.384 10.9033 170.726 10.3713 171.03 9.738C171.334 9.10467 171.575 8.332 171.752 7.42H174.374V12.132H179.276V14.564H174.374V26.724C174.374 27.9147 174.589 28.8013 175.02 29.384C175.476 29.9413 176.135 30.22 176.996 30.22C177.503 30.22 177.959 30.1947 178.364 30.144C178.795 30.068 179.213 29.9793 179.618 29.878V32.044C179.238 32.2213 178.63 32.3987 177.794 32.576C176.983 32.7787 176.046 32.88 174.982 32.88ZM181.129 32.5V30.638H181.623C182.054 30.638 182.484 30.5873 182.915 30.486C183.371 30.3593 183.738 30.1187 184.017 29.764C184.321 29.4093 184.473 28.8773 184.473 28.168V16.388C184.473 15.6787 184.321 15.1593 184.017 14.83C183.713 14.4753 183.346 14.2473 182.915 14.146C182.484 14.0447 182.054 13.994 181.623 13.994H181.281V12.132H189.413V28.092C189.413 28.8267 189.552 29.384 189.831 29.764C190.11 30.1187 190.477 30.3593 190.933 30.486C191.389 30.5873 191.832 30.638 192.263 30.638H192.719V32.5H181.129ZM186.753 8.56C185.968 8.56 185.296 8.35733 184.739 7.952C184.207 7.54666 183.941 6.888 183.941 5.976C183.941 5.03867 184.207 4.38 184.739 4C185.296 3.59467 185.98 3.392 186.791 3.392C187.551 3.392 188.21 3.59467 188.767 4C189.324 4.38 189.603 5.03867 189.603 5.976C189.603 6.888 189.324 7.54666 188.767 7.952C188.21 8.35733 187.538 8.56 186.753 8.56ZM196.323 15.894C196.146 15.3873 195.931 14.9947 195.677 14.716C195.449 14.4373 195.145 14.2473 194.765 14.146C194.385 14.0447 193.929 13.994 193.397 13.994V12.132H204.303V13.994H203.125C202.593 13.994 202.188 14.108 201.909 14.336C201.631 14.564 201.491 14.9313 201.491 15.438C201.491 15.6913 201.517 15.9573 201.567 16.236C201.643 16.5147 201.719 16.768 201.795 16.996L204.379 24.178C204.582 24.7353 204.772 25.3307 204.949 25.964C205.152 26.5973 205.329 27.2053 205.481 27.788C205.659 28.3453 205.798 28.852 205.899 29.308C205.975 28.9027 206.089 28.4467 206.241 27.94C206.393 27.408 206.558 26.876 206.735 26.344C206.938 25.7867 207.115 25.2927 207.267 24.862L209.927 17.3C210.054 16.9707 210.143 16.6413 210.193 16.312C210.269 15.9827 210.307 15.666 210.307 15.362C210.307 14.8553 210.143 14.5007 209.813 14.298C209.484 14.0953 209.028 13.994 208.445 13.994H207.647V12.132H215.931V13.994H215.285C214.88 13.994 214.538 14.07 214.259 14.222C213.981 14.3487 213.715 14.6147 213.461 15.02C213.208 15.4253 212.929 16.0333 212.625 16.844L206.963 32.5H202.517L196.323 15.894ZM227.32 32.88C224.28 32.88 221.937 31.968 220.29 30.144C218.669 28.2947 217.858 25.7233 217.858 22.43C217.858 18.8833 218.643 16.2107 220.214 14.412C221.81 12.588 224.039 11.676 226.902 11.676C229.562 11.676 231.639 12.4487 233.134 13.994C234.654 15.514 235.414 17.7813 235.414 20.796V22.658H222.874C222.925 24.4313 223.153 25.8753 223.558 26.99C223.989 28.0793 224.584 28.89 225.344 29.422C226.129 29.954 227.079 30.22 228.194 30.22C229.081 30.22 229.866 30.0933 230.55 29.84C231.259 29.5613 231.867 29.2067 232.374 28.776C232.881 28.32 233.286 27.826 233.59 27.294C233.869 27.4207 234.084 27.636 234.236 27.94C234.413 28.2187 234.502 28.548 234.502 28.928C234.502 29.5613 234.236 30.182 233.704 30.79C233.197 31.398 232.412 31.9047 231.348 32.31C230.309 32.69 228.967 32.88 227.32 32.88ZM230.36 20.378C230.36 19.086 230.246 17.9587 230.018 16.996C229.79 16.0333 229.423 15.2987 228.916 14.792C228.435 14.26 227.776 13.994 226.94 13.994C226.129 13.994 225.433 14.2347 224.85 14.716C224.293 15.1973 223.849 15.9193 223.52 16.882C223.216 17.8193 223.026 18.9847 222.95 20.378H230.36ZM256.785 32.88C255.24 32.88 253.935 32.7407 252.871 32.462C251.807 32.158 250.946 31.7527 250.287 31.246C249.629 30.7393 249.147 30.1693 248.843 29.536C248.539 28.8773 248.387 28.2187 248.387 27.56C248.387 26.8253 248.552 26.23 248.881 25.774C249.211 25.2927 249.654 24.938 250.211 24.71C250.794 24.482 251.415 24.368 252.073 24.368C252.099 25.66 252.314 26.7873 252.719 27.75C253.125 28.7127 253.707 29.46 254.467 29.992C255.253 30.4987 256.19 30.752 257.279 30.752C258.85 30.752 260.066 30.3593 260.927 29.574C261.814 28.7633 262.257 27.6993 262.257 26.382C262.257 25.4953 262.042 24.7353 261.611 24.102C261.181 23.4687 260.509 22.886 259.597 22.354C258.685 21.822 257.507 21.2647 256.063 20.682C254.822 20.1753 253.745 19.6307 252.833 19.048C251.921 18.4653 251.187 17.8447 250.629 17.186C250.072 16.5273 249.654 15.8053 249.375 15.02C249.122 14.2093 248.995 13.31 248.995 12.322C248.995 10.8273 249.388 9.53533 250.173 8.446C250.959 7.33133 252.023 6.48266 253.365 5.9C254.708 5.292 256.241 4.988 257.963 4.988C259.686 4.988 261.117 5.19067 262.257 5.596C263.397 5.976 264.246 6.49533 264.803 7.154C265.386 7.81267 265.677 8.53467 265.677 9.32C265.677 10.1813 265.335 10.8907 264.651 11.448C263.967 11.98 262.954 12.246 261.611 12.246C261.611 11.5113 261.472 10.7513 261.193 9.966C260.94 9.18067 260.509 8.522 259.901 7.99C259.319 7.43266 258.521 7.154 257.507 7.154C256.722 7.154 256.013 7.306 255.379 7.61C254.771 7.88866 254.29 8.31933 253.935 8.902C253.581 9.45933 253.403 10.1433 253.403 10.954C253.403 11.79 253.581 12.5247 253.935 13.158C254.29 13.7913 254.911 14.3993 255.797 14.982C256.684 15.5647 257.938 16.1853 259.559 16.844C261.206 17.5027 262.549 18.212 263.587 18.972C264.651 19.7067 265.437 20.5553 265.943 21.518C266.475 22.4553 266.741 23.5573 266.741 24.824C266.741 26.4453 266.323 27.864 265.487 29.08C264.677 30.2707 263.524 31.208 262.029 31.892C260.56 32.5507 258.812 32.88 256.785 32.88ZM277.849 32.88C276.051 32.88 274.67 32.4367 273.707 31.55C272.77 30.6633 272.301 29.118 272.301 26.914V14.564H269.413V12.778C270.097 12.778 270.743 12.6387 271.351 12.36C271.959 12.0813 272.466 11.7393 272.871 11.334C273.251 10.9033 273.593 10.3713 273.897 9.738C274.201 9.10467 274.442 8.332 274.619 7.42H277.241V12.132H282.143V14.564H277.241V26.724C277.241 27.9147 277.457 28.8013 277.887 29.384C278.343 29.9413 279.002 30.22 279.863 30.22C280.37 30.22 280.826 30.1947 281.231 30.144C281.662 30.068 282.08 29.9793 282.485 29.878V32.044C282.105 32.2213 281.497 32.3987 280.661 32.576C279.851 32.7787 278.913 32.88 277.849 32.88ZM293.306 32.88C291.305 32.88 289.772 32.2847 288.708 31.094C287.644 29.878 287.112 27.978 287.112 25.394V16.654C287.112 15.894 286.998 15.324 286.77 14.944C286.542 14.564 286.213 14.3107 285.782 14.184C285.377 14.0573 284.883 13.994 284.3 13.994H284.224V12.132H292.052V24.634C292.052 25.7487 292.141 26.6987 292.318 27.484C292.521 28.2693 292.863 28.8773 293.344 29.308C293.826 29.7387 294.484 29.954 295.32 29.954C296.258 29.954 297.018 29.7133 297.6 29.232C298.183 28.7253 298.614 28.0287 298.892 27.142C299.171 26.2553 299.31 25.2167 299.31 24.026V16.54C299.31 15.78 299.171 15.2227 298.892 14.868C298.639 14.5133 298.297 14.2853 297.866 14.184C297.436 14.0573 296.954 13.994 296.422 13.994H296.308V12.132H304.25V28.206C304.25 28.9407 304.364 29.4853 304.592 29.84C304.846 30.1693 305.188 30.3847 305.618 30.486C306.049 30.5873 306.518 30.638 307.024 30.638H307.252V32.5H300.26L299.538 29.65H299.348C298.968 30.334 298.55 30.8913 298.094 31.322C297.638 31.7273 297.157 32.044 296.65 32.272C296.144 32.5 295.612 32.652 295.054 32.728C294.497 32.8293 293.914 32.88 293.306 32.88ZM317.789 32.88C316.142 32.88 314.736 32.5127 313.571 31.778C312.431 31.0433 311.557 29.9033 310.949 28.358C310.341 26.7873 310.037 24.786 310.037 22.354C310.037 19.8967 310.328 17.8827 310.911 16.312C311.519 14.7413 312.393 13.5887 313.533 12.854C314.698 12.094 316.104 11.714 317.751 11.714C319.195 11.714 320.373 12.0053 321.285 12.588C322.197 13.1707 322.931 13.9307 323.489 14.868H323.717C323.666 14.412 323.615 13.918 323.565 13.386C323.539 12.854 323.514 12.322 323.489 11.79C323.463 11.258 323.451 10.7893 323.451 10.384V7.914C323.451 7.17933 323.311 6.64733 323.033 6.318C322.754 5.96333 322.374 5.73533 321.893 5.634C321.437 5.53267 320.93 5.482 320.373 5.482H320.069V3.62H328.391V28.016C328.391 28.776 328.53 29.346 328.809 29.726C329.113 30.106 329.493 30.3593 329.949 30.486C330.43 30.5873 330.962 30.638 331.545 30.638H331.735V32.5H324.743L323.907 29.346H323.641C323.083 30.4353 322.349 31.2967 321.437 31.93C320.525 32.5633 319.309 32.88 317.789 32.88ZM319.081 30.182C320.753 30.182 321.893 29.536 322.501 28.244C323.134 26.952 323.451 24.976 323.451 22.316C323.451 20.5933 323.311 19.1493 323.033 17.984C322.779 16.7933 322.336 15.894 321.703 15.286C321.069 14.678 320.183 14.374 319.043 14.374C318.105 14.374 317.345 14.6907 316.763 15.324C316.18 15.932 315.749 16.8313 315.471 18.022C315.217 19.1873 315.091 20.6313 315.091 22.354C315.091 24.102 315.217 25.5587 315.471 26.724C315.749 27.864 316.18 28.7253 316.763 29.308C317.345 29.8907 318.118 30.182 319.081 30.182ZM333.055 32.5V30.638H333.549C333.98 30.638 334.41 30.5873 334.841 30.486C335.297 30.3593 335.664 30.1187 335.943 29.764C336.247 29.4093 336.399 28.8773 336.399 28.168V16.388C336.399 15.6787 336.247 15.1593 335.943 14.83C335.639 14.4753 335.272 14.2473 334.841 14.146C334.41 14.0447 333.98 13.994 333.549 13.994H333.207V12.132H341.339V28.092C341.339 28.8267 341.478 29.384 341.757 29.764C342.036 30.1187 342.403 30.3593 342.859 30.486C343.315 30.5873 343.758 30.638 344.189 30.638H344.645V32.5H333.055ZM338.679 8.56C337.894 8.56 337.222 8.35733 336.665 7.952C336.133 7.54666 335.867 6.888 335.867 5.976C335.867 5.03867 336.133 4.38 336.665 4C337.222 3.59467 337.906 3.392 338.717 3.392C339.477 3.392 340.136 3.59467 340.693 4C341.25 4.38 341.529 5.03867 341.529 5.976C341.529 6.888 341.25 7.54666 340.693 7.952C340.136 8.35733 339.464 8.56 338.679 8.56ZM356.571 32.88C353.658 32.88 351.352 32.006 349.655 30.258C347.983 28.51 347.147 25.8373 347.147 22.24C347.147 18.6933 347.945 16.046 349.541 14.298C351.162 12.55 353.544 11.676 356.685 11.676C359.624 11.676 361.929 12.55 363.601 14.298C365.273 16.046 366.109 18.6933 366.109 22.24C366.109 25.8373 365.298 28.51 363.677 30.258C362.081 32.006 359.712 32.88 356.571 32.88ZM356.647 30.638C357.736 30.638 358.598 30.334 359.231 29.726C359.89 29.0927 360.358 28.1427 360.637 26.876C360.916 25.6093 361.055 24.064 361.055 22.24C361.055 20.3907 360.903 18.858 360.599 17.642C360.32 16.426 359.852 15.514 359.193 14.906C358.56 14.2727 357.698 13.956 356.609 13.956C355.545 13.956 354.684 14.2727 354.025 14.906C353.366 15.514 352.898 16.426 352.619 17.642C352.34 18.858 352.201 20.3907 352.201 22.24C352.201 24.0893 352.34 25.6347 352.619 26.876C352.923 28.1173 353.392 29.0547 354.025 29.688C354.684 30.3213 355.558 30.638 356.647 30.638Z" fill="white"/>
<defs>
<linearGradient id="paint0_linear_95_54" x1="23" y1="6" x2="6.01642" y2="23.0164" gradientUnits="userSpaceOnUse">
<stop stop-color="#2D2E2E"/>
<stop offset="1" stop-color="#D5D7D8"/>
</linearGradient>
<linearGradient id="paint1_linear_95_54" x1="23" y1="6" x2="6.01642" y2="23.0164" gradientUnits="userSpaceOnUse">
<stop stop-color="#2D2E2E"/>
<stop offset="1" stop-color="#D5D7D8"/>
</linearGradient>
</defs>
</svg>
